<?xml version="1.0" encoding="UTF-8" standalone="no"?>
<!DOCTYPE svg PUBLIC "-//W3C//DTD SVG 1.1//EN"
 "http://www.w3.org/Graphics/SVG/1.1/DTD/svg11.dtd">
<!-- Generated by graphviz version 2.47.0 (20210316.0004)
 -->
<!-- Title: dependencies Pages: 1 -->
<svg width="504pt" height="287pt"
 viewBox="0.00 0.00 504.00 287.00" xmlns="http://www.w3.org/2000/svg" xmlns:xlink="http://www.w3.org/1999/xlink">
<g id="graph0" class="graph" transform="scale(1 1) rotate(0) translate(4 283)">
<title>dependencies</title>
<polygon fill="white" stroke="transparent" points="-4,4 -4,-283 500,-283 500,4 -4,4"/>
<text text-anchor="start" x="227.01" y="-42.4" font-family="Times-12" font-weight="bold" font-size="14.00">Legend</text>
<polygon fill="#ffffb3" stroke="transparent" points="14,-10 14,-30 34,-30 34,-10 14,-10"/>
<text text-anchor="start" x="37.63" y="-15.4" font-family="Times-12" font-size="14.00"> &#160;Declarations</text>
<polygon fill="#8dd3c7" stroke="transparent" points="127,-10 127,-30 147,-30 147,-10 127,-10"/>
<text text-anchor="start" x="150.73" y="-15.4" font-family="Times-12" font-size="14.00"> &#160;Module</text>
<polygon fill="#80b1d3" stroke="transparent" points="213,-10 213,-30 233,-30 233,-10 213,-10"/>
<text text-anchor="start" x="236.78" y="-15.4" font-family="Times-12" font-size="14.00"> &#160;Bootstrap</text>
<polygon fill="#fdb462" stroke="transparent" points="310,-10 310,-30 330,-30 330,-10 310,-10"/>
<text text-anchor="start" x="333.67" y="-15.4" font-family="Times-12" font-size="14.00"> &#160;Providers</text>
<polygon fill="#fb8072" stroke="transparent" points="406,-10 406,-30 426,-30 426,-10 406,-10"/>
<text text-anchor="start" x="429.73" y="-15.4" font-family="Times-12" font-size="14.00"> &#160;Exports</text>
<g id="clust1" class="cluster">
<title>cluster_AppModule</title>
<polygon fill="none" stroke="black" stroke-dasharray="1,5" points="113.5,-146 113.5,-271 367.5,-271 367.5,-146 113.5,-146"/>
</g>
<g id="clust3" class="cluster">
<title>cluster_AppModule_imports</title>
<polygon fill="none" stroke="black" points="259.5,-154 259.5,-206 359.5,-206 359.5,-154 259.5,-154"/>
</g>
<g id="clust6" class="cluster">
<title>cluster_AppModule_providers</title>
<polygon fill="none" stroke="black" points="121.5,-154 121.5,-206 251.5,-206 251.5,-154 121.5,-154"/>
</g>
<g id="clust7" class="cluster">
<title>cluster_NftsModule</title>
<polygon fill="none" stroke="black" stroke-dasharray="1,5" points="236.5,-70 236.5,-138 382.5,-138 382.5,-70 236.5,-70"/>
</g>
<g id="clust12" class="cluster">
<title>cluster_NftsModule_providers</title>
<polygon fill="none" stroke="black" points="244.5,-78 244.5,-130 374.5,-130 374.5,-78 244.5,-78"/>
</g>
<!-- NftsModule -->
<g id="node1" class="node">
<title>NftsModule</title>
<polygon fill="#8dd3c7" stroke="black" points="351.15,-198 348.15,-202 327.15,-202 324.15,-198 267.85,-198 267.85,-162 351.15,-162 351.15,-198"/>
<text text-anchor="middle" x="309.5" y="-175.8" font-family="Times,serif" font-size="14.00">NftsModule</text>
</g>
<!-- AppModule -->
<g id="node2" class="node">
<title>AppModule</title>
<polygon fill="#8dd3c7" stroke="black" points="289.16,-263 286.16,-267 265.16,-267 262.16,-263 205.84,-263 205.84,-227 289.16,-227 289.16,-263"/>
<text text-anchor="middle" x="247.5" y="-240.8" font-family="Times,serif" font-size="14.00">AppModule</text>
</g>
<!-- NftsModule&#45;&gt;AppModule -->
<g id="edge1" class="edge">
<title>NftsModule&#45;&gt;AppModule</title>
<path fill="none" stroke="black" d="M278.5,-198.11C278.5,-198.11 278.5,-216.99 278.5,-216.99"/>
<polygon fill="black" stroke="black" points="275,-216.99 278.5,-226.99 282,-216.99 275,-216.99"/>
</g>
<!-- AppService -->
<g id="node3" class="node">
<title>AppService</title>
<ellipse fill="#fdb462" stroke="black" cx="186.5" cy="-180" rx="56.74" ry="18"/>
<text text-anchor="middle" x="186.5" y="-175.8" font-family="Times,serif" font-size="14.00">AppService</text>
</g>
<!-- AppService&#45;&gt;AppModule -->
<g id="edge2" class="edge">
<title>AppService&#45;&gt;AppModule</title>
<path fill="none" stroke="black" d="M224.4,-193.47C224.4,-193.47 224.4,-216.86 224.4,-216.86"/>
<polygon fill="black" stroke="black" points="220.9,-216.86 224.4,-226.86 227.9,-216.86 220.9,-216.86"/>
</g>
<!-- NftsService -->
<g id="node4" class="node">
<title>NftsService</title>
<ellipse fill="#fdb462" stroke="black" cx="309.5" cy="-104" rx="56.73" ry="18"/>
<text text-anchor="middle" x="309.5" y="-99.8" font-family="Times,serif" font-size="14.00">NftsService</text>
</g>
<!-- NftsService&#45;&gt;NftsModule -->
<g id="edge3" class="edge">
<title>NftsService&#45;&gt;NftsModule</title>
<path fill="none" stroke="black" d="M309.5,-122.01C309.5,-122.01 309.5,-151.85 309.5,-151.85"/>
<polygon fill="black" stroke="black" points="306,-151.85 309.5,-161.85 313,-151.85 306,-151.85"/>
</g>
</g>
</svg>
